HIERARCHY
ROOT hip
{
  OFFSET 0 0 0
  CHANNELS 6 Xposition Yposition Zposition Zrotation Yrotation Xrotation
  JOINT abdomen
  {
    OFFSET 0 20.6881 -0.73152
    CHANNELS 3 Zrotation Xrotation Yrotation
    JOINT chest
    {
      OFFSET 0 11.7043 -0.48768
      CHANNELS 3 Zrotation Xrotation Yrotation
      JOINT neck
      {
        OFFSET 0 22.1894 -2.19456
        CHANNELS 3 Zrotation Xrotation Yrotation
        JOINT head
        {
          OFFSET -0.24384 7.07133 1.2192
          CHANNELS 3 Zrotation Xrotation Yrotation
          JOINT leftEye
          {
            OFFSET 4.14528 8.04674 8.04672
            CHANNELS 3 Zrotation Xrotation Yrotation
            End Site
            {
              OFFSET 1 0 0
            }
          }
          JOINT rightEye
          {
            OFFSET -3.6576 8.04674 8.04672
            CHANNELS 3 Zrotation Xrotation Yrotation
            End Site
            {
              OFFSET 1 0 0
            }
          }
        }
      }
      JOINT rCollar
      {
        OFFSET -2.68224 19.2634 -4.8768
        CHANNELS 3 Zrotation Xrotation Yrotation
        JOINT rShldr
        {
          OFFSET -8.77824 -1.95073 1.46304
          CHANNELS 3 Zrotation Xrotation Yrotation
          JOINT rForeArm
          {
            OFFSET -28.1742 -1.7115 0.48768
            CHANNELS 3 Zrotation Xrotation Yrotation
            JOINT rHand
            {
              OFFSET -22.5879 0.773209 7.07136
              CHANNELS 3 Zrotation Xrotation Yrotation
              JOINT rThumb1
              {
                OFFSET -1.2192 -0.487915 3.41376
                CHANNELS 3 Zrotation Xrotation Yrotation
                JOINT rThumb2
                {
                  OFFSET -3.37035 -0.52449 3.41376
                  CHANNELS 3 Zrotation Xrotation Yrotation
                  End Site
                  {
                    OFFSET -1.78271 -1.18214 1.43049
                  }
                }
              }
              JOINT rIndex1
              {
                OFFSET -7.75947 0.938293 5.60832
                CHANNELS 3 Zrotation Xrotation Yrotation
                JOINT rIndex2
                {
                  OFFSET -2.54057 -0.884171 1.56538
                  CHANNELS 3 Zrotation Xrotation Yrotation
                  End Site
                  {
                    OFFSET -1.62519 -0.234802 1.16502
                  }
                }
              }
              JOINT rMid1
              {
                OFFSET -8.24714 1.18213 3.41376
                CHANNELS 3 Zrotation Xrotation Yrotation
                JOINT rMid2
                {
                  OFFSET -3.10165 -0.590103 1.0647
                  CHANNELS 3 Zrotation Xrotation Yrotation
                  End Site
                  {
                    OFFSET -2.48547 -0.328903 0.83742
                  }
                }
              }
              JOINT rRing1
              {
                OFFSET -8.82822 0.546677 1.51678
                CHANNELS 3 Zrotation Xrotation Yrotation
                JOINT rRing2
                {
                  OFFSET -2.60934 -0.819778 -0.0198488
                  CHANNELS 3 Zrotation Xrotation Yrotation
                  End Site
                  {
                    OFFSET -2.33842 -0.294052 0.168128
                  }
                }
              }
              JOINT rPinky1
              {
                OFFSET -8.27202 -0.0477905 -0.4584
                CHANNELS 3 Zrotation Xrotation Yrotation
                JOINT rPinky2
                {
                  OFFSET -1.82734 -0.647385 -0.700984
                  CHANNELS 3 Zrotation Xrotation Yrotation
                  End Site
                  {
                    OFFSET -1.69225 -0.51767 -0.607171
                  }
                }
              }
            }
          }
        }
      }
      JOINT lCollar
      {
        OFFSET 2.68224 19.2634 -4.8768
        CHANNELS 3 Zrotation Xrotation Yrotation
        JOINT lShldr
        {
          OFFSET 8.77824 -1.95073 1.46304
          CHANNELS 3 Zrotation Xrotation Yrotation
          JOINT lForeArm
          {
            OFFSET 28.1742 -1.7115 0.48768
            CHANNELS 3 Zrotation Xrotation Yrotation
            JOINT lHand
            {
              OFFSET 22.5879 0.773209 7.07136
              CHANNELS 3 Zrotation Xrotation Yrotation
              JOINT lThumb1
              {
                OFFSET 1.2192 -0.487915 3.41376
                CHANNELS 3 Zrotation Xrotation Yrotation
                JOINT lThumb2
                {
                  OFFSET 3.37035 -0.52449 3.41376
                  CHANNELS 3 Zrotation Xrotation Yrotation
                  End Site
                  {
                    OFFSET 1.78271 -1.18214 1.43049
                  }
                }
              }
              JOINT lIndex1
              {
                OFFSET 7.75947 0.938293 5.60832
                CHANNELS 3 Zrotation Xrotation Yrotation
                JOINT lIndex2
                {
                  OFFSET 2.54057 -0.884171 1.56538
                  CHANNELS 3 Zrotation Xrotation Yrotation
                  End Site
                  {
                    OFFSET 1.62519 -0.234802 1.16502
                  }
                }
              }
              JOINT lMid1
              {
                OFFSET 8.24714 1.18213 3.41376
                CHANNELS 3 Zrotation Xrotation Yrotation
                JOINT lMid2
                {
                  OFFSET 3.10165 -0.590103 1.0647
                  CHANNELS 3 Zrotation Xrotation Yrotation
                  End Site
                  {
                    OFFSET 2.48547 -0.328903 0.83742
                  }
                }
              }
              JOINT lRing1
              {
                OFFSET 8.82822 0.546677 1.51678
                CHANNELS 3 Zrotation Xrotation Yrotation
                JOINT lRing2
                {
                  OFFSET 2.60934 -0.819778 -0.0198488
                  CHANNELS 3 Zrotation Xrotation Yrotation
                  End Site
                  {
                    OFFSET 2.33842 -0.294052 0.168128
                  }
                }
              }
              JOINT lPinky1
              {
                OFFSET 8.27202 -0.0477905 -0.4584
                CHANNELS 3 Zrotation Xrotation Yrotation
                JOINT lPinky2
                {
                  OFFSET 1.82734 -0.647385 -0.700984
                  CHANNELS 3 Zrotation Xrotation Yrotation
                  End Site
                  {
                    OFFSET 1.69225 -0.51767 -0.607171
                  }
                }
              }
            }
          }
        }
      }
    }
  }
  JOINT rButtock
  {
    OFFSET -8.77824 4.35084 1.2192
    CHANNELS 3 Zrotation Xrotation Yrotation
    JOINT rThigh
    {
      OFFSET 0 -1.70687 -2.19456
      CHANNELS 3 Zrotation Xrotation Yrotation
      JOINT rShin
      {
        OFFSET 0 -36.8199 0.73152
        CHANNELS 3 Zrotation Xrotation Yrotation
        JOINT rFoot
        {
          OFFSET 0.73152 -45.1104 -5.12064
          CHANNELS 3 Zrotation Xrotation Yrotation
          End Site
          {
            OFFSET -1.1221 -3.69964 12.103
          }
        }
      }
    }
  }
  JOINT lButtock
  {
    OFFSET 8.77824 4.35084 1.2192
    CHANNELS 3 Zrotation Xrotation Yrotation
    JOINT lThigh
    {
      OFFSET 0 -1.70687 -2.19456
      CHANNELS 3 Zrotation Xrotation Yrotation
      JOINT lShin
      {
        OFFSET 0 -36.8199 0.73152
        CHANNELS 3 Zrotation Xrotation Yrotation
        JOINT lFoot
        {
          OFFSET -0.73152 -45.1104 -5.12064
          CHANNELS 3 Zrotation Xrotation Yrotation
          End Site
          {
            OFFSET 1.1221 -3.69964 12.103
          }
        }
      }
    }
  }
}
MOTION
Frames:	4
Frame Time:	0.03333
17.54604079760611 51.06818675994873 7.731610676273704 -17.474707727302878 -29.56599353949052 14.109294230771882 14.872608851655828 9.024891167330635 2.254979910847128 2.0920826739066745 -6.735217097151017 0.6978346645280906 1.0919256940238367 13.132302264345967 8.59765344323623 3.1364903149879093 -24.96605750142557 16.77527415817877 0.026213438941289132 -0.0882894264499649 0.006591466054392872 0.05446029990368511 -0.19780366574574443 -0.08890334306247269 0.21597601102258482 -0.11772940940257104 0.07705960827868547 103.850219122295 45.106388278751204 -56.216097360032556 -27.224860824104024 -44.283295842251306 91.92009162357381 -5.510884344085074 -50.04097114274822 -10.28734064483348 0.03184970570829836 0.00296915793739859 0.2660315993037654 -0.07901482996988095 -0.1284321824298488 -0.09706045656131909 -0.06458007893270525 -0.024334896795697617 0.06351617024776998 7.497357779271365 5.350735191068493 0.28328556428171675 -0.015435587193994129 -0.16886383406728306 -0.08898002260807666 2.9263083187536916 0.9987549768339868 0.14813402317330923 -0.10054774838028661 0.026095004528298167 0.03835642138808754 10.365204801371625 0.6538653217461334 0.10313849782941063 -0.17166325113163625 0.03339140747001718 -0.11028482337237448 2.2870713412190216 -0.6717813348259001 -0.03458586348154961 -0.08395647183438518 0.1407540838163898 -0.09858401563305506 -48.212741237800074 16.93469248095416 -36.650788256099254 13.525469297313057 -6.544433691933281 -24.222362598932488 2.068741569635214 38.367180643577605 -6.821122520776382 0.07890485325207316 0.08531893449124404 0.028484396799039035 -0.0771983198157749 0.02659825073191059 0.13276180199212284 0.20331658890129675 -0.018546791721787827 0.08627862943048373 -7.567949491890739 5.2404361737092495 -0.35814988039205137 -0.10476125472667046 0.03642646606073582 -0.1722319711017456 -2.914945658739141 0.9671723955552595 -0.26535242236817225 -0.12677583487569424 -0.12783947675636506 -0.21022559205102911 -10.180399519224943 0.6580600717527263 -0.12501818174232668 -0.09091612110361744 -0.043204548357900774 -0.09647279348843354 -2.1155281520063896 -0.5225099517536514 0.0640188828428535 -0.045687135358215294 0.023313356627957586 -0.07159457648860257 -10.804639535776381 11.531789158778755 -4.898845606712218 0.6536793591738093 34.76647908297072 2.30849743120194 -9.221666355997764 -17.917985296889412 -32.869902890092845 -0.013634498326373501 0.006613237282372287 0.1150630743053273 89.48636544870403 -52.516955698012865 76.23202819445746 5.672539126926821 79.06470571874767 -5.137465522442606 -0.9054644111685446 0.5696252369786341 -6.98613306093472
17.81593789346516 51.123595237731934 7.754994696006179 -17.461356415022795 -29.69204809571769 14.057756184615904 14.799151874679634 9.143231878663922 2.2667252748986115 2.115537116629675 -6.758016268600519 0.6924057847158411 1.1226250464655168 13.15843798320502 8.6780857509023 3.131508118875208 -25.014801146437367 16.909094639492245 0.02442238191401196 -0.09019462234157534 0.009821345119015543 0.05436104871730836 -0.1977922465232258 -0.08072992782306818 0.2080025655793883 -0.1188093797042264 0.08128885607667206 103.81824700679017 45.094076862772255 -56.21475864295523 -27.23106605096498 -44.2461259527881 91.87026539357856 -5.515242858549189 -49.96983813763712 -10.262760501557896 0.027647965429976926 0.006021612166159601 0.2589726521574101 -0.07562844352372979 -0.12500940388202614 -0.09865285113328409 -0.06313325276742614 -0.023467142605988655 0.06617951713725183 7.4906155287869165 5.355928696158641 0.28103795179710656 -0.01648743632617609 -0.17608835994015826 -0.09532094611793436 2.9302689746986528 0.9968290769314548 0.14174270033789627 -0.10110224768310058 0.02392946103543389 0.03361093401880962 10.368524273308251 0.6565158620309216 0.10702156709426866 -0.17302091131173497 0.039173909654373444 -0.10973776790853877 2.29094832734665 -0.6721303681646583 -0.03752167088589149 -0.0813136421928398 0.14767455954949366 -0.09662930086996203 -48.31620835844201 16.896378534804974 -36.64317259517469 13.509689852783035 -6.542244616304292 -24.140337149642512 2.076724780114489 38.45472317816966 -6.836539111506747 0.07850667456780258 0.0817074719675998 0.023671781476824583 -0.07274685074592487 0.02649787896762314 0.127288686032827 0.201386633573945 -0.025029281574364615 0.08798863132221989 -7.561073198943829 5.23471674405301 -0.3616264466795878 -0.12158763919040844 0.04384330444742919 -0.16932684618781588 -2.912065026456688 0.9571046967186607 -0.2674810401508361 -0.1280824820804294 -0.1251686593474785 -0.20488358370728577 -10.180381589978373 0.6591726988963508 -0.12168889140876858 -0.09628112797495667 -0.04509752461419923 -0.08878680295975934 -2.107989757596811 -0.5231435051600231 0.06450884219409614 -0.05181936457241736 0.026481337103227014 -0.07729546324846247 -10.869551946100891 11.39757252649342 -4.913291456806795 0.6461012642896802 35.02550717705428 2.3313288326065886 -9.241448291381413 -17.93336688290028 -32.85501307770222 -0.013519025440717973 0.013652467593584452 0.11507780190072514 89.22618988283992 -52.63699285758125 75.8933669248407 5.509201556228312 78.9140522362247 -4.9812125654606945 -0.9355932293711171 0.7420286031398647 -7.040056550658325
18.063090601935983 51.04701519012451 7.772507844492793 -17.542382949146656 -29.73680974044337 14.14564705885563 14.80850923384255 9.125741471746812 2.2873620511455703 2.159550428754414 -6.772847170609555 0.7067258099193018 1.0990081733063166 13.19592889155922 8.680017840663767 3.1612220030857023 -25.045113525973882 16.936893509414197 0.029106797787156448 -0.09454758727698909 0.009487946510154294 0.05092108797485491 -0.2080969742683652 -0.07067762359252835 0.20166350969938177 -0.12252254801348038 0.08116052322546988 103.97777973523417 45.07869527676139 -56.36625223874612 -27.2963182632007 -44.35810690423045 92.04628619867897 -5.452002990797687 -49.942531041335414 -10.2537173310968 0.03385874181963415 0.011148096025077296 0.2436174797687223 -0.07249509424198643 -0.12312533888816045 -0.10500023130634156 -0.06391733713980245 -0.014958968055974176 0.06550610317377088 7.4977496613749945 5.372089350621715 0.27413914057027633 -0.019032642287357876 -0.1752425904218403 -0.09407646430681688 2.941139861092963 0.995095489542741 0.14153891524070658 -0.10149119493982107 0.030964395797988355 0.023174618410441702 10.37177715090047 0.6476623360409983 0.12078450499355013 -0.17592454212178374 0.04376070184715435 -0.10455296063741151 2.2998612973266934 -0.6728603979930563 -0.03276994029682535 -0.08662907683184357 0.15069590440101938 -0.09484683494000026 -48.41063913881202 16.921469234721016 -36.57437209966515 13.507599814897011 -6.5846421618035 -24.2159592965856 2.0564702810176394 38.40318257069274 -6.819525110284245 0.07924881730980678 0.07465145966815351 0.016344802766399186 -0.07515865457487984 0.02523613492059551 0.1333816416593015 0.19896970710311254 -0.026401829432419834 0.08777038543389683 -7.563028340593745 5.253027627444168 -0.36179725476969105 -0.11661824968240103 0.053125744972888085 -0.16792788470757974 -2.9091314602081675 0.9588502369384221 -0.260835639614384 -0.11914507282976196 -0.12970806710289245 -0.20440328267041635 -10.20229369060942 0.6525981615725375 -0.1133130517739231 -0.09548658487541378 -0.047274060442758996 -0.08724883645774288 -2.120797216064231 -0.5236276481783005 0.06114444041933594 -0.04824215971632897 0.027370702438356723 -0.08067128424574127 -10.990382261386648 11.456949068495634 -4.954204289935172 0.6951285755954433 34.979109702022384 2.3279412722216737 -9.240199220536947 -17.89819994641118 -32.77794122310779 -0.012044344910229907 0.01996052081806146 0.11891434050186246 89.62903444008727 -52.6771133887659 76.3932343192481 5.705382945324473 79.28496565910224 -5.130640455914471 -0.9363731515969679 0.5627763715101096 -6.9444176805788675
18.290607491508126 50.859105587005615 7.785857422277331 -17.5820048765219 -29.645630130118285 14.230717064968138 14.735335709716912 9.019613138649508 2.3184558470118186 2.205930828313386 -6.785464237553861 0.7223055247769538 1.0447811670514697 13.22549336538162 8.5640864785602 3.220101221938974 -25.038390912283297 16.812353547635475 0.03343484320427023 -0.0990790976261752 0.007855264494256794 0.04705488073951034 -0.21821493902838707 -0.06442717340874687 0.199367338838641 -0.12722139799733181 0.07441909983424085 103.95267195984519 45.024456744562315 -56.38330722110364 -27.330271133564832 -44.38496320804695 92.06502823776148 -5.3652450741865385 -49.81065374884081 -10.237328292183355 0.041107600241427525 0.012774481460333692 0.23462345465313778 -0.07072532819501266 -0.12100627269816398 -0.11237854315724784 -0.0651021615173881 -0.009464721198933606 0.06094689854193448 7.500631147431094 5.3788824006381155 0.2706265023461857 -0.0169902022821125 -0.1701555935940617 -0.08916491796334303 2.9468005938110227 0.9977318358406602 0.14320457426369054 -0.10190837008772076 0.03165136341810354 0.01731207494674935 10.363642395598985 0.6362750233124119 0.1262916918574167 -0.17763731877787023 0.04049363026806685 -0.09783616327979155 2.304736985177025 -0.6754482392756977 -0.025528819198701137 -0.09200328845030645 0.14827401537086807 -0.09658042232871412 -48.34301685093431 16.93595435840332 -36.453655336274345 13.493447662936743 -6.608873111657767 -24.272050517597037 2.0190579198388945 38.263156862518315 -6.770968441700979 0.08080359248048381 0.07057228926892206 0.011901124381071201 -0.07699907039108093 0.0231406809080032 0.1416142607649883 0.19898902373185898 -0.023659508480659716 0.08622035937912706 -7.558493094984857 5.2693287276720495 -0.3602609424541142 -0.09979634753030588 0.05536220503924413 -0.17055788106400488 -2.907443549709528 0.9642162043051133 -0.24618669811370492 -0.11279731913073425 -0.13386039523143708 -0.2069228220613577 -10.207173860771395 0.6463379730331034 -0.11019432336587182 -0.08726015562866232 -0.049048789049051605 -0.08666688299611663 -2.1344780849717666 -0.5275176009931816 0.055938875776434194 -0.04407227586718329 0.03298501121440142 -0.08245777892009629 -11.108696505736901 11.499933156489817 -4.906708008220549 0.7329878872780008 34.8257719551556 2.323959271935556 -9.184510126912896 -17.804115798141545 -32.5779806049665 -0.010440531115746289 0.021860487346088604 0.12363432138345862 89.97294129498658 -52.574015098339146 76.92699311231708 5.988330361881421 79.63954126948512 -5.391136186895942 -0.9069002449981282 0.25556353398792747 -6.664350042530725
